# xmcd
#
# Track frame offsets:
#	150
#	6435
#	19104
#	37518
#	44980
#	57826
#	77301
#	90223
#	106880
#	120687
#	134087
#	151679
#	170210
#	185925
#	205562
#	219371
#	226458
#	232689
#	264206
#
# Disc length: 3796 seconds
#
# Revision: 1
# Processed by: cddbd v1.4PL0 Copyright (c) Steve Scherf et al.
# Submitted via: EasyCDDAExtractor 6.2.0.3
#
DISCID=ed0ed213
DTITLE=Patrik Ömalm - Sky Train
DYEAR=2001
DGENRE=Blues
TTITLE0=Arrival
TTITLE1=Mama's New Thing
TTITLE2=Big Band Beat
TTITLE3=Dirty Laundry
TTITLE4=A Way of Life
TTITLE5=Constantinople Street Rag
TTITLE6=Doctor's Order
TTITLE7=That Old Devil Called Love
TTITLE8=Nothin' But Words
TTITLE9=Things That You Do
TTITLE10=Borrowed Time
TTITLE11=Makin' It Simple
TTITLE12=World Of My Own
TTITLE13=One Shot of Bourbon Away
TTITLE14=Sugardaddy Blues
TTITLE15=Stop Rockin' The Boat
TTITLE16=Departure
TTITLE17=Waltz #5
TTITLE18=(track 19)
EXTD=
EXTT0=
EXTT1=
EXTT2=
EXTT3=
EXTT4=
EXTT5=
EXTT6=
EXTT7=
EXTT8=
EXTT9=
EXTT10=
EXTT11=
EXTT12=
EXTT13=
EXTT14=
EXTT15=
EXTT16=
EXTT17=
EXTT18=
PLAYORDER=
